<svg xmlns="http://www.w3.org/2000/svg" version="1.1" xmlns:xlink="http://www.w3.org/1999/xlink" xmlns:svgjs="http://svgjs.dev/svgjs" viewBox="0 0 6.286932608865687 4.569953980369377"><g transform="matrix(1,0,0,1,1.4676540408816972,2.6165111401463497)"><rect width="6.286932608865687" height="6.286932608865687" x="-1.467654040881697" y="-3.475000454394505" fill="#d4d6c9"></rect><g><path d=" M -0.08659906483825094 -0.15232608054040786 Q -0.09490725296622726 -0.1363581749159951 -0.11132209847137492 -0.13080814365102603 Q -0.12773694397652258 -0.12525811238605694 -0.14991459067709584 -0.13679726256380187 Q -0.18273750779394432 -0.15387520482686434 -0.22972933183261457 -0.20763409686826206 Q -0.27672115587128476 -0.2613929889096598 -0.33373456666123547 -0.33163877874859843 Q -0.3136913931586746 -0.2986649831535165 -0.2935795543104439 -0.25607374064824556 Q -0.27346771546221316 -0.21348249814297462 -0.26563464112824026 -0.17220728831336318 Q -0.2578015667942673 -0.1309320784837517 -0.2739563770431102 -0.0998833731029491 Q -0.2882649232635139 -0.07238309119423822 -0.3080154223102967 -0.06800498802014196 Q -0.3277659213570795 -0.0636268848460457 -0.3490564621896298 -0.07470446901668082 Q -0.36236305020997384 -0.08162795912332778 -0.37976630612828755 -0.09801016542900215 Q -0.3971695620466013 -0.11439237173467653 -0.41253179707911763 -0.13253077670329844 Q -0.427894032111634 -0.15066918167192037 -0.43484677447103076 -0.16330482070142138 Q -0.45967896488222604 -0.20440667369349635 -0.476967368468503 -0.25567421802163837 Q -0.49425577205477994 -0.3069417623497803 -0.49772198239430815 -0.35552658905403184 Q -0.5011881927338364 -0.40411141575828335 -0.48318711845655427 -0.43870854461117764 Q -0.47164796827880934 -0.4608861913117509 -0.44900198167767946 -0.4784121517950296 Q -0.48096704517925487 -0.5209707551008272 -0.5082657963371607 -0.5616650813050874 Q -0.5355645474950665 -0.6023594075093476 -0.5547206151296045 -0.6348716370973198 Q -0.5891668655042653 -0.6899938271402251 -0.6030869763494338 -0.7282362187241496 Q -0.6170070871946024 -0.7664786103080741 -0.6163079642904908 -0.7959872739031092 Q -0.6156088413863794 -0.8254959374981442 -0.605771850652287 -0.8530682716992484 Q -0.5612927743466942 -0.7543990679373793 -0.5123387556080666 -0.6697468142796171 Q -0.4633847368694391 -0.5850945606218549 -0.40172641375564067 -0.49777760241330066 Q -0.39548064653328346 -0.4967824181066878 -0.3928193289292147 -0.4953977200853583 Q -0.38660958785305416 -0.49216675803558974 -0.3851382114129565 -0.48632851760104734 Q -0.3836668349728589 -0.48049027716650505 -0.3859746650084078 -0.47605474782639035 Q -0.373309773726157 -0.45706526313594215 -0.350533230327134 -0.4271783250058422 Q -0.3277566869281111 -0.39729138687574217 -0.30013708740115874 -0.36263005796338266 Q -0.2725174878742064 -0.3279687290510231 -0.24310566353810975 -0.2935021569960218 Q -0.21369383920201318 -0.2590355849410205 -0.18594814816337246 -0.23219947812970576 Q -0.15206476834096455 -0.19766085378231113 -0.13520975684852887 -0.188891099647225 Q -0.12633869816829957 -0.18427543957612702 -0.12356930212564077 -0.1895980747842646 Q -0.11756894403321341 -0.20113045106856275 -0.13427307704741565 -0.24702132096927215 L -0.1569347681144018 -0.3117935971218398 L -0.1732133612676909 -0.3563357951474165 L -0.21534858139153806 -0.46167630599255594 Q -0.22049108586869234 -0.475624590750993 -0.22652069621386955 -0.4900344415165399 Q -0.23255030655904677 -0.5044442922820868 -0.23815437704331086 -0.5175054711725009 Q -0.23943099662605025 -0.5215514867978992 -0.23804629860472087 -0.5242128044019679 Q -0.23527690256206207 -0.5295354396101055 -0.22906716148590156 -0.5263044775603369 Q -0.2255187380138098 -0.5244582135318978 -0.2216168269731983 -0.5167917221420145 Q -0.21381300489197524 -0.501458739362248 -0.2062759919605037 -0.48344642590531445 Q -0.19873897902903218 -0.46543411244838084 -0.19228382882294182 -0.4496755898077012 Q -0.19100720924020242 -0.44562957418230303 -0.18215755057979485 -0.42580702284312694 Q -0.17330789191938728 -0.4059844715039508 -0.16057433529146647 -0.3773775399033136 Q -0.1478407786635457 -0.3487706083026764 -0.1340073462371454 -0.3190277747573631 Q -0.12017391381074513 -0.28928494121204973 -0.1080606539010957 -0.2638189062956895 Q -0.0959473939914463 -0.2383528713793292 -0.08945621763915929 -0.22483012648180525 Q -0.0803757759751968 -0.20545112807664062 -0.07979489234984549 -0.1859854512527077 Q -0.07921400872449419 -0.16651977442877477 -0.08659906483825094 -0.15232608054040786 M -0.29201595582589196 -0.11717069834974475 Q -0.28416933370502545 -0.13225149810613457 -0.29200240803899835 -0.17352670793574604 Q -0.29650321577805955 -0.19954098727798436 -0.309110680894292 -0.23597314097966635 Q -0.3217181460105245 -0.27240529468134833 -0.33503597321052 -0.3063889007094181 Q -0.34835380041051545 -0.34037250673748787 -0.3565831623526517 -0.3570541613923871 Q -0.37677044043999913 -0.3810848460148464 -0.397578015245618 -0.40825642732158257 Q -0.41838559005123677 -0.43542800862831876 -0.43938792171421387 -0.4643918147441992 Q -0.446628873243184 -0.4591412318284549 -0.45124453331428194 -0.4502701731482256 Q -0.4637068155062465 -0.4263183147116064 -0.4578787359118743 -0.3855226839622031 Q -0.4520506563175021 -0.34472705321279984 -0.4387868683368016 -0.30738978056999655 Q -0.42300586733681894 -0.25972469893324124 -0.39888403900938674 -0.21617429826755408 Q -0.3747622106819545 -0.17262389760186686 -0.3510625352687119 -0.14451117120781276 Q -0.3317623630493874 -0.12094205259246325 -0.31579445742497464 -0.11263386446448691 Q -0.2989394459325389 -0.10386411032940077 -0.29201595582589196 -0.11717069834974475 M 0.05989351787825259 -0.40212435284882925 Q 0.03545707625473371 -0.3717292821830066 -0.00225087246494092 -0.37509983159732885 Q -0.03995882118461556 -0.37847038101165115 -0.08516174679019799 -0.41481175573380746 Q -0.09295535465322945 -0.42107750999624816 -0.10043567480313886 -0.4277329446518405 Q -0.10791599495304828 -0.4343883793074328 -0.11586238817613881 -0.44206006978242074 Q -0.15029161414752848 -0.47743843038619926 -0.1801434418101311 -0.5328741443727826 Q -0.20999526947273373 -0.588309858359366 -0.22947773463029356 -0.6694112365929352 Q -0.24246604473533345 -0.7234788220819814 -0.2345489649842397 -0.7684379129114769 Q -0.2266318852331459 -0.8133970037409723 -0.20344859446211516 -0.8422333528341888 Q -0.18715763337976923 -0.8624967332780705 -0.1668325169918563 -0.8718181947416926 Q -0.14166301654005764 -0.8823773730717952 -0.1151647498057507 -0.8610738085794967 Q -0.09568073014817208 -0.8454094229233948 -0.08318858383831945 -0.812270378269494 Q -0.07069643752846688 -0.7791313336155932 -0.07581707884047398 -0.7280747078697238 Q -0.08347488982947296 -0.6610944277056578 -0.09793242659111003 -0.6239598127112094 Q -0.11238996335274709 -0.586825197716761 -0.12602183737005765 -0.5682733242055445 Q -0.12246147213067565 -0.5551461082264346 -0.10915909706250432 -0.5341866994192737 Q -0.09585672199433298 -0.5132272906121128 -0.0794291867879452 -0.4929631329182216 Q -0.06300165158155738 -0.4726989752243304 -0.04866758670798263 -0.45860874512684263 Q -0.04555014356277005 -0.45610244342186634 -0.04235630773752792 -0.45289317361061643 Q -0.03916247191228581 -0.44968390379936657 -0.035265667980770084 -0.44655102666814617 Q -0.011884844391675725 -0.427753763880824 0.011450454489404682 -0.4224656804727594 Q 0.03478575337048509 -0.4171775970646948 0.051703289879075076 -0.4382203382948798 Q 0.06674110010893286 -0.45692499716615526 0.07189954913595004 -0.4912708907145209 Q 0.07705799816296721 -0.5256167842628866 0.07644763397274032 -0.5639590254018092 Q 0.07583726978251346 -0.6023012665407318 0.07239959918118435 -0.6339348313230442 Q 0.06896192857985523 -0.6655683961053567 0.06602813876671731 -0.6794749728707697 L 0.04536969268670826 -0.7910331577141929 L 0.03458211356652652 -0.8510300587735461 Q 0.0341237574863493 -0.8552478674111877 0.03537690833883747 -0.856806588983794 Q 0.03913636089630193 -0.8614827537016129 0.04537124718672708 -0.8564701502916603 Q 0.04770932954563653 -0.8545904240129281 0.05003197791853814 -0.8463075920977039 Q 0.05467727466434144 -0.8297419282672553 0.05853549363083771 -0.8106012870448049 Q 0.06239371259733395 -0.7914606458223545 0.06563307313059003 -0.774742196631847 Q 0.06933078974402335 -0.7538059388036977 0.07597001316359844 -0.7221646570283815 Q 0.0826092365831736 -0.6905233752530651 0.08955403072286683 -0.6560702210526543 Q 0.09649882486256009 -0.6216170668522436 0.09892795663749746 -0.592718981814996 Q 0.10395443953343902 -0.5399199811644457 0.09696178893570356 -0.489726825877913 Q 0.08996913833796816 -0.43953367059138027 0.05989351787825259 -0.40212435284882925 M -0.1328524311147113 -0.5853127781021781 Q -0.12485973593359742 -0.5968504045366662 -0.11949525984550331 -0.6194827353114729 Q -0.11413078375740922 -0.6421150660862798 -0.11063059996203956 -0.6688124201386692 Q -0.1071304161666699 -0.6955097741910585 -0.10621292675630606 -0.7197926532045089 Q -0.10529543734594224 -0.7440755322179593 -0.1055701400940448 -0.7596936159160378 Q -0.10518739944388772 -0.7888972716734035 -0.11544100705387209 -0.8112548997001077 Q -0.12569461466385648 -0.8336125277268119 -0.1381643872447068 -0.8436377345467172 Q -0.1467373558940414 -0.8505300642354019 -0.15641840702880896 -0.8512561833206873 Q -0.16609945816357652 -0.8519823024059725 -0.17299178785226135 -0.843409333756638 Q -0.1861498718033869 -0.8270427572442719 -0.18552407362715226 -0.7951036217418412 Q -0.18489827545091758 -0.7631644862394107 -0.17569950862534828 -0.7243330210482953 Q -0.16650074179977903 -0.68550155585718 -0.1546428879091744 -0.6483815975987299 Q -0.14278503401856976 -0.6112616393402799 -0.1328524311147113 -0.5853127781021781 M 0.5217588775760666 -0.8510816606074397 Q 0.5185356230235976 -0.8487129837426084 0.5127300471843876 -0.8481695785759211 Q 0.4854299115874412 -0.8380353496270402 0.4601988679362414 -0.8554822529703632 Q 0.4383559592098996 -0.8716960538317498 0.42177522115608046 -0.8942588356990336 Q 0.3945354372105204 -0.9313262630524286 0.3728689964584335 -0.986140178668231 Q 0.3541146377378652 -1.0319252638923544 0.33998151642409113 -1.0798653815593997 Q 0.3256347506884076 -1.1264075163721199 0.3151614668828352 -1.170211743637624 Q 0.3046881830772628 -1.214015970903128 0.2985830223189683 -1.2442769525811137 Q 0.28582929563569204 -1.310604491776295 0.2759539748472605 -1.3747038524542732 Q 0.26607865405882886 -1.4388032131322517 0.2594114999100197 -1.4934708365994926 Q 0.24629083603431096 -1.6042040663882993 0.24839010380575094 -1.655386026831641 Q 0.21362400104383944 -1.6385242920825644 0.178726694046213 -1.6184636848057792 Q 0.14382938704858655 -1.598403077528994 0.10756777333330891 -1.5717554627996417 Q 0.03504454590275363 -1.5184602333409374 -0.01308712765139311 -1.4539265831971786 Q -0.0612188012055398 -1.3893929330534198 -0.08024015537744267 -1.3257754190697137 Q -0.09202777503011725 -1.2860884939819233 -0.09019900302099251 -1.25826933524305 Q -0.08837023101186783 -1.2304501765041764 -0.07711901590391909 -1.215139717379948 Q -0.06349912393113907 -1.1966060037032507 -0.03847593090091578 -1.1988620645561943 Q -0.01345273787069251 -1.2011181254091379 0.017168180377764186 -1.2236205556250352 Q 0.08082745778902936 -1.2704019237054536 0.1209834351481977 -1.3272129920137503 Q 0.16113941250736608 -1.384024060322047 0.18902471669855897 -1.4541554356840392 Q 0.1894520055423779 -1.4569514013926894 0.19267526009484698 -1.4593200782575206 Q 0.19509270100919884 -1.4610965859061442 0.19667994626067314 -1.4597810432380136 Q 0.19826719151214744 -1.458465500569883 0.19660680018639237 -1.4522813999363746 Q 0.18315878920796264 -1.406410374215076 0.15533733697913693 -1.3530791751297455 Q 0.12751588475031111 -1.299747976044415 0.0886417739225995 -1.2513248048620689 Q 0.049767663094887865 -1.2029016336797227 0.003030472084085578 -1.1685558191396688 Q -0.0026102233827353938 -1.164410634626214 -0.008250918849556366 -1.1602654501127592 Q -0.01389161431637731 -1.1561202655993044 -0.020124478999406115 -1.1527808947239668 Q -0.04387159929910567 -1.1378117839463822 -0.07548179978189581 -1.13692002981109 Q -0.10709200026468602 -1.1360282756757973 -0.1224883998860895 -1.1569794302668468 Q -0.14735950696681827 -1.1908236030677726 -0.14654210572683501 -1.2336176663851637 Q -0.14695780696878802 -1.2730235947776967 -0.13095185672837784 -1.3145694677003048 Q -0.11494590648796765 -1.3561153406229132 -0.08552791489575395 -1.3988304640650904 Q -0.055517754087332394 -1.4407397738691503 -0.019537137067312055 -1.4795907094931302 Q 0.016443479952708284 -1.51844164511711 0.0560839344809303 -1.5531566903395486 Q 0.09572438900915237 -1.5878717355619874 0.13279181636254728 -1.6151115195075474 Q 0.19403365285946061 -1.6601163799393421 0.25475067241351407 -1.6923257502603017 Q 0.26112982924510436 -1.7106644077389168 0.2711688235848965 -1.7248671748159912 Q 0.28120781792468863 -1.7390699418930653 0.29168339522021325 -1.746768141703767 Q 0.30296478615385514 -1.7550585107306766 0.3131779549779498 -1.7563589654859606 Q 0.3233911238020445 -1.7576594202412448 0.32990498518033057 -1.7487954702219546 Q 0.33523450812620104 -1.741543147478899 0.3359427936652773 -1.7321357922929217 Q 0.3674856418747196 -1.7466288501771667 0.4052369727424305 -1.7619613978362032 Q 0.4429883036101413 -1.7772939454952397 0.47853583798540983 -1.7922479683599777 Q 0.5140833723606781 -1.8072019912247155 0.5412186275852358 -1.8209379995203638 Q 0.5496552887607069 -1.8246558951899998 0.5674412469607213 -1.8333828471726419 Q 0.5852272051607357 -1.842109799155284 0.6059403333051154 -1.853608334821816 Q 0.626653461449495 -1.8651068704883482 0.6419639205737233 -1.876358085596297 Q 0.6532453115073651 -1.8846484546232065 0.6594201180289598 -1.892288596272474 Q 0.6655949245505544 -1.8999287379217416 0.6628477228914247 -1.905355788966653 Q 0.6553631675026323 -1.9172293491165027 0.6365147809940037 -1.9226134299128268 Q 0.6176663944853751 -1.9279975107091507 0.5966478876209779 -1.9262024148366998 Q 0.5756293807565807 -1.9244073189642492 0.5627363625467043 -1.9149326115049239 Q 0.5603189216323523 -1.9131561038563005 0.5597267524161446 -1.9139619174944178 Q 0.5591345831999367 -1.914767731132535 0.5609598548980808 -1.917350052419276 Q 0.5643967538724592 -1.9211167121384323 0.575949847389445 -1.9265042932457368 Q 0.5875029409064305 -1.9318918743530413 0.5996482036396239 -1.9364736418222288 Q 0.6117934663728173 -1.9410554092914163 0.6172205174177288 -1.943802610950546 Q 0.6515105672863009 -1.9528686177898793 0.66809130534012 -1.9303058359225957 Q 0.6769738435832373 -1.9182186313508365 0.6755944489527397 -1.8998312098227006 Q 0.6754969208536985 -1.8898316854205153 0.6742974945084363 -1.879642898621181 Q 0.673098068163174 -1.8694541118218466 0.669020235923067 -1.8614935035397147 Q 0.6596802330104375 -1.847183914251686 0.6462531037457875 -1.834214249656548 Q 0.6328259744811373 -1.8212445850614098 0.6167097017187917 -1.8094012007372533 Q 0.5780306470891621 -1.7809770783592778 0.526498044187263 -1.757378543698092 Q 0.47496544128536394 -1.7337800090369062 0.42288943321677763 -1.7159870502149306 Q 0.37081342514819116 -1.6981940913929547 0.3310963242347076 -1.6863808828944915 Q 0.32978428187755765 -1.654392157617403 0.3288414702027925 -1.6295001688228947 Q 0.3278986585280272 -1.6046081800283862 0.3279509228885285 -1.5792064622038646 Q 0.3280031872490297 -1.553804744379343 0.3306714490329456 -1.519777102982201 Q 0.33558068375695854 -1.4489258544792667 0.34493118760253016 -1.3720310036904528 Q 0.3542816914481018 -1.295136152901639 0.36973385574098716 -1.2183818004604539 Q 0.3849723756119632 -1.1402294651649434 0.407841743020293 -1.065202856322861 Q 0.4307111104286229 -0.9901762474807788 0.4636775303381791 -0.9250516349418407 Q 0.47897640186054147 -0.8941009559486062 0.49318846304952935 -0.8747614286337914 Q 0.5074005242385171 -0.8554219013189767 0.518584387073118 -0.8537127459437011 Q 0.5233705048523012 -0.8522659990398553 0.5217588775760666 -0.8510816606074397 M 0.768782345579635 -1.6491410978028946 Q 0.7449939878692432 -1.6386475742077222 0.7349040613354236 -1.661520995083099 Q 0.7288501054151318 -1.6752450476083252 0.7346766414560933 -1.6892914520508642 Q 0.740503177497055 -1.703337856493403 0.7523973563522508 -1.7085846182909892 Q 0.7642915352074469 -1.7138313800885752 0.7747859350222349 -1.7086239265335856 Q 0.785280334837023 -1.7034164729785957 0.788697222964579 -1.6907151000006944 Q 0.79119917425712 -1.6776101299614399 0.7859378493459755 -1.6659989947809604 Q 0.780676524434831 -1.6543878596004808 0.768782345579635 -1.6491410978028946 M 0.7969344941183599 -1.183930976962157 Q 0.7493577786975762 -1.1629439297718123 0.7231239697096453 -1.2224148240477921 Q 0.7174736108507063 -1.2352239397380032 0.7129536742514014 -1.2529035939523328 Q 0.7081378833030533 -1.2737316557330605 0.7067535435958194 -1.305363658571562 Q 0.7053692038885856 -1.3369956614100635 0.706729674686397 -1.3698384554326237 Q 0.7080901454842085 -1.4026812494551837 0.7105938492159809 -1.4267380877267335 Q 0.7132856645844871 -1.4454130477005025 0.7163007080899217 -1.4707884198684202 Q 0.7193157515953564 -1.496163792036338 0.7226266494498343 -1.5183907566378578 Q 0.7259375473043124 -1.5406177212393777 0.7262607754412409 -1.5473181334335264 Q 0.7265036346537451 -1.561633894656839 0.7399455197238705 -1.5757606680238023 Q 0.7533874047939959 -1.5898874413907653 0.7661965204842069 -1.5955378002497045 Q 0.780835509844448 -1.601995353231349 0.7844678833966232 -1.5937609217162132 Q 0.7868894657647398 -1.5882713007061229 0.7852477037314435 -1.5820822282856364 Q 0.7803754127680934 -1.5460508422344663 0.7735920029906732 -1.4982467069343524 Q 0.766808593213253 -1.4504425716342384 0.762204782811061 -1.4014139582561234 Q 0.757600972408869 -1.3523853448780085 0.7587022684413864 -1.3102452553307762 Q 0.7598035644739038 -1.2681051657835438 0.7711042821917818 -1.2424869344031217 Q 0.7771582381120735 -1.2287628818778957 0.7858227642568315 -1.2227482342002003 Q 0.7944872904015895 -1.216733586522505 0.8082113429268155 -1.2227875424427967 Q 0.8228503322870567 -1.2292450954244414 0.8353507829538975 -1.251700356124907 Q 0.8478512336207383 -1.2741556168253727 0.857822359207153 -1.2998670278045459 Q 0.8677934847935675 -1.325578438783719 0.8725032854688377 -1.3396787145824127 L 0.8823264838807306 -1.3669643293447848 Q 0.8848831827490421 -1.3735569988266243 0.8863231462516621 -1.3802035396646182 Q 0.8877631097542821 -1.3868500805026123 0.8894048717875784 -1.3930391529230988 Q 0.8909388911085653 -1.3969947546122023 0.8927687647785953 -1.3978019487349078 Q 0.8982583857886859 -1.4002235311030247 0.9018907593408609 -1.391989099587889 Q 0.9039087446476248 -1.3874144154128136 0.9018633855529756 -1.382140279827342 Q 0.8974494392267489 -1.3648915964622506 0.8926318958391692 -1.348557849932174 Q 0.8878143524515897 -1.3322241034020974 0.8820818722289949 -1.315486759810668 Q 0.8713163631942017 -1.2779487282263964 0.8524241653565823 -1.2390117938213323 Q 0.8335319675189629 -1.2000748594162685 0.7969344941183599 -1.183930976962157 M 1.0114638150922493 -1.0863978967563888 Q 0.9931834121303922 -1.0812184308039834 0.9753519859880508 -1.0927960057543011 Q 0.9575205598457095 -1.1043735807046189 0.9482520418256156 -1.1370858807416262 Q 0.9430725758732103 -1.1553662837034835 0.9414690123363324 -1.1756992270217341 Q 0.9406672305678935 -1.1858656986808596 0.9385344887337559 -1.2154029871865588 Q 0.9364017468996184 -1.244940275692258 0.9359206545376549 -1.2759848976119927 Q 0.9344934643491136 -1.3140370083046433 0.9369388230149271 -1.3640996712481537 Q 0.9393841816807408 -1.414162334191664 0.9470651065568053 -1.471424917027651 Q 0.9519719107857814 -1.5164684878481187 0.9592038588423303 -1.5569740297813823 Q 0.9664358068988791 -1.5974795717146462 0.9742129618977864 -1.6360608607045564 L 0.8414395088064034 -1.5984415816818225 Q 0.8308561176179599 -1.5954429434988509 0.8294931002620637 -1.6002535758572343 Q 0.8264944620790922 -1.610836967045678 0.8476612444559792 -1.616834243411621 L 0.9785104446040089 -1.6539083154919965 Q 0.9902964501928608 -1.7040190934969281 1.0053697260809622 -1.749864446085835 Q 1.0204430019690636 -1.7957097986747417 1.0426520540431212 -1.8383801397323405 Q 1.0535561346380402 -1.8622569281759214 1.0653261407079184 -1.8739066902814334 Q 1.0770961467777966 -1.885556452386946 1.091054994939658 -1.8931492488410924 Q 1.1050138431015193 -1.9007420452952388 1.1222038321786596 -1.909770017134351 Q 1.0932118088675686 -1.843351175046212 1.073512317418095 -1.786321094942532 Q 1.053812825968621 -1.7292910148388527 1.0391244123196404 -1.671082334176288 L 1.1815191301277903 -1.711427647910814 Q 1.1930646477879105 -1.7146988895649649 1.194700268614986 -1.7089261307349046 Q 1.1955180790285236 -1.7060397513198746 1.191180495583429 -1.7011729895775205 Q 1.1868429121383346 -1.6963062278351662 1.1762595209498912 -1.6933075896521947 L 1.0348269296134178 -1.6532348793888478 Q 1.023185240082705 -1.6062830842701254 1.014694519115652 -1.5555469269712163 Q 1.0062037981485992 -1.5048107696723072 0.9971438272715396 -1.4450787269506085 Q 0.9894789310405737 -1.395096236358717 0.987915526494818 -1.3400866393212334 Q 0.9863521219490622 -1.28507704228375 0.9887254099641815 -1.2400174428181834 Q 0.9910986979793007 -1.1949578433526167 0.9962781639317062 -1.1766774403907596 Q 1.0088179236059507 -1.132419622693632 1.032871085397868 -1.1392347094731128 Q 1.0444166030579882 -1.1425059511272635 1.0584636378940178 -1.15895833126861 Q 1.0894440869811073 -1.1926809019648406 1.112318619088014 -1.2256658345991522 Q 1.1351931511949211 -1.258650767233464 1.15449979520885 -1.2932232056334296 Q 1.1651152436874912 -1.3107820283045917 1.17884155999092 -1.3375371818406532 Q 1.1925678762943492 -1.3642923353767145 1.2065026523624374 -1.3921459171200423 Q 1.2204374284305255 -1.41999949886337 1.2309245894961265 -1.441679430892418 L 1.2421012735622248 -1.464594092864322 Q 1.244169842563717 -1.4682982826928899 1.2460940955070705 -1.4688434896352482 Q 1.2518668543371305 -1.4704791104623236 1.2540476821065645 -1.4627820986889102 Q 1.2554106994624605 -1.4579714663305268 1.25292521093165 -1.4520704200874264 Q 1.2502954063427003 -1.4430103909581167 1.246430871810895 -1.4346398848293045 Q 1.2416042108074126 -1.425996775229313 1.2380122797467863 -1.416664142628824 Q 1.211088825437188 -1.3539494903692526 1.1757788363536785 -1.2878192803973914 Q 1.1404688472701692 -1.2216890704255303 1.0998190475310168 -1.1634001882852216 Q 1.082597001163679 -1.1398120319579188 1.0629054949106296 -1.117602921631611 Q 1.04321398865758 -1.0953938113053032 1.0114638150922493 -1.0863978967563888 M 1.4664633897700807 -1.805674391978569 Q 1.4406937763895549 -1.802220839283412 1.4373730526442117 -1.8269993136877638 Q 1.4353806183970057 -1.841866398330375 1.4448884431618763 -1.8537344760281536 Q 1.454396267926747 -1.8656025537259322 1.4672810746170097 -1.8673293300735108 Q 1.4801658813072727 -1.8690561064210893 1.4887948841769019 -1.8611320727591256 Q 1.4974238870465308 -1.853208039097162 1.4971683854417612 -1.8400575745072716 Q 1.4959217448608175 -1.8267742809675676 1.4876349706605805 -1.8170877246468575 Q 1.4793481964603434 -1.8074011683261475 1.4664633897700807 -1.805674391978569 M 1.3639451266984808 -1.3510283695206768 Q 1.312405899937429 -1.3441212641303628 1.3037720181995367 -1.4085452975816775 Q 1.3019124129021447 -1.4224212432481145 1.3024949087340196 -1.4406602316686887 Q 1.3036700566926276 -1.4620054659675992 1.3111497008991244 -1.492771598687592 Q 1.3186293451056212 -1.523537731407585 1.3290824062406403 -1.554702350977019 Q 1.3395354673756592 -1.5858669705464532 1.3486397271436599 -1.6082748364438735 Q 1.3564258537083809 -1.625461349560796 1.3663884235027417 -1.6489931833842038 Q 1.3763509932971028 -1.6725250172076118 1.3857209109647306 -1.6929506051526837 Q 1.3950908286323587 -1.7133761930977558 1.3972672718619985 -1.7197215138042414 Q 1.4014873293714645 -1.7334032941933868 1.4183316138189948 -1.7432277576113393 Q 1.435175898266525 -1.753052221029292 1.449051843932962 -1.7549118263266843 Q 1.464910067551747 -1.757037089523704 1.4661055281000706 -1.7481168387381372 Q 1.466902501798953 -1.7421700048810929 1.4636020906433254 -1.7366829942009676 Q 1.4488881475402435 -1.7034339358931105 1.4290600905901678 -1.6594100996497236 Q 1.4092320336400919 -1.6153862634063367 1.3911563430539045 -1.5695793926353223 Q 1.373080652467717 -1.523772521864308 1.3624027578916675 -1.4829928385964994 Q 1.3517248633156178 -1.4422131553286912 1.3554440739104021 -1.4144612639958172 Q 1.357436508157608 -1.399594179353206 1.3640832330748889 -1.391404487791615 Q 1.37072995799217 -1.3832147962300239 1.385597042634781 -1.3852072304772298 Q 1.401455266253566 -1.3873324936742495 1.4197147665430216 -1.405418141276129 Q 1.4379742668324773 -1.4235037888780084 1.4547113123465039 -1.4454211634347707 Q 1.4714483578605306 -1.4673385379915327 1.4798986291743204 -1.4795693562275847 L 1.4969320007517133 -1.5030398537235148 Q 1.501223550883515 -1.5086596933534537 1.5044575475642359 -1.514642273521666 Q 1.5076915442449565 -1.5206248536898783 1.5109919554005842 -1.5261118643700036 Q 1.5135668854796653 -1.529483768147967 1.5155491634320135 -1.5297494260475943 Q 1.5214959972890578 -1.5305463997464768 1.5226914578373814 -1.5216261489609102 Q 1.52335560258645 -1.5166704540800398 1.5199223624810088 -1.5121745823760886 Q 1.510879439040486 -1.4968375182617006 1.5017036866501499 -1.4824915931234868 Q 1.4925279342598134 -1.4681456679852727 1.4823610428933032 -1.4536669138972451 Q 1.4615674369833633 -1.42061202086668 1.4325790613644034 -1.3884767741899529 Q 1.4035906857454434 -1.356341527513226 1.3639451266984808 -1.3510283695206768 M 1.7617881234896382 -1.3688258828419535 Q 1.7217918443412044 -1.3693714598581086 1.7225010944622061 -1.4213666227510726 Q 1.7227466041194759 -1.4393649483678679 1.7290461133506263 -1.4612810653470831 Q 1.7311414032858752 -1.4682531353472514 1.7383589829433133 -1.4841561710287978 Q 1.7455765626007511 -1.500059206710344 1.7548416942045244 -1.5194346379665706 Q 1.7641068258082977 -1.5388100692227973 1.7723447715825524 -1.556199325947006 Q 1.7805827173568072 -1.5735885826712148 1.7837188325469784 -1.5835467341821117 Q 1.7622843243811266 -1.551836138796846 1.7363570545237776 -1.5206868743152533 Q 1.710429784666429 -1.4895376098336606 1.681146054350333 -1.4689351066174454 Q 1.651862324034237 -1.44833260340123 1.618865393736779 -1.4487827044395583 Q 1.5878819168221465 -1.4502054336057892 1.5751013569053678 -1.4663812577954132 Q 1.5623207969885888 -1.4825570819850373 1.562634503772878 -1.5055549424953867 Q 1.5630027682587828 -1.5325524309205796 1.5754381136162372 -1.56438578113448 Q 1.5878734589736914 -1.5962191313483804 1.6032130492894512 -1.6210122144350936 Q 1.6297698471774922 -1.6616537755017373 1.6672983429805448 -1.7001454889315166 Q 1.7048268387835974 -1.7386372023612962 1.7471707372372518 -1.7635619744514597 Q 1.7895146356909064 -1.7884867465416234 1.8275111008819185 -1.7879684483762759 Q 1.8475092404561355 -1.7876956598681983 1.866418816786516 -1.780937115423904 Q 1.8853283931168971 -1.7741785709796098 1.904122034331345 -1.7589208172162736 Q 1.918956965907161 -1.7467173420906852 1.9187660139515068 -1.7327186443887332 Q 1.9185750619958526 -1.7187199466867815 1.9065761782513224 -1.718883619791628 Q 1.8975770154429248 -1.7190063746202628 1.893741060632928 -1.7310598160664086 Q 1.8812060103734187 -1.7652339658728278 1.8522087079908043 -1.7656295092095404 Q 1.8262111265443224 -1.7659841342700413 1.7939003964412858 -1.743422735372616 Q 1.7615896663382498 -1.7208613364751906 1.7301560883852893 -1.6892871353439638 Q 1.6946819642412738 -1.65476777097822 1.667111619949118 -1.6131399423582693 Q 1.6395412756569623 -1.5715121137383186 1.6250788374912786 -1.537706228417804 Q 1.6116572245805172 -1.5068864246080182 1.611452633199459 -1.4918878199273555 Q 1.6111934841167854 -1.4728895873318495 1.626192088797448 -1.4726849959507913 Q 1.6431905074355324 -1.4724531257189253 1.6765420627934913 -1.4980006061270792 Q 1.6987718865569958 -1.5146989574062784 1.7251445522020845 -1.5418417742603256 Q 1.7515172178471732 -1.568984591114373 1.7748833428434274 -1.5956683727552767 Q 1.7982494678396816 -1.6223521543961803 1.8114528499439808 -1.6371734465465926 Q 1.822683696941666 -1.6540218315052342 1.8298194400466807 -1.6639254253145155 Q 1.8339009045139474 -1.669870309485165 1.8429409855985566 -1.6727472755926627 Q 1.851981066683166 -1.6756242417001603 1.8619801364702744 -1.6754878474461214 Q 1.8739790202148046 -1.675324174341275 1.8819168986301738 -1.670715477533845 Q 1.8898547770455432 -1.6661067807264152 1.8857323943020647 -1.657162175619633 Q 1.8816100115585865 -1.648217570512851 1.8677634619981913 -1.622904074798677 Q 1.8539169124377959 -1.5975905790845026 1.8369819856761427 -1.5658186062849195 Q 1.8200470589144895 -1.5340466334853367 1.8051528643864698 -1.5052471027710783 Q 1.79025866985845 -1.47644757205682 1.783041090201012 -1.4605445363752736 Q 1.76861957031154 -1.4297383719908918 1.7684149789304817 -1.414739767310229 Q 1.7682376664002313 -1.4017409765869882 1.7782367361873397 -1.4016045823329493 Q 1.7852360850383158 -1.4015091063551222 1.7993438981434986 -1.4093174102291546 Q 1.8214918853545798 -1.4200163196360884 1.843769447106998 -1.4402143453407754 Q 1.866047008859416 -1.4604123710454624 1.8863588552179222 -1.4831374430477344 Q 1.8975078656631843 -1.493986386134111 1.9066434227256206 -1.5038627010925845 Q 1.9157789797880571 -1.513739016051058 1.9239282692971864 -1.5246288774136463 Q 1.9269689085095307 -1.5275876800735673 1.9289687224669523 -1.5275604012227595 Q 1.9349681643392174 -1.5274785646703362 1.9348454095105825 -1.5184794018619385 Q 1.9347772123835631 -1.5134798669683844 1.9307230267671043 -1.5095347967551564 Q 1.9195330980456307 -1.4956861327326472 1.9083568087495608 -1.4828373756888489 Q 1.8971805194534912 -1.4699886186450506 1.8850043231787106 -1.4571535010266563 Q 1.8738280338826407 -1.4443047439828578 1.8621586108099175 -1.431962760141117 Q 1.8504891877371943 -1.419620776299376 1.8383402703132214 -1.4087854726384033 Q 1.8160558888481013 -1.3880874934443608 1.7964213085092011 -1.378354392452628 Q 1.776786728170301 -1.3686212914608953 1.7617881234896382 -1.3688258828419535 M 1.8781884210876547 -1.8372818260416242 Q 1.876202246555637 -1.838309011871143 1.8652851063422409 -1.8444584874228505 Q 1.854367966128845 -1.8506079629745584 1.8424781977875457 -1.8587708919090917 Q 1.8305884294462467 -1.866933820843625 1.8246435452755971 -1.8710152853108917 Q 1.8157262190196228 -1.8771374820117916 1.7993846072630384 -1.8888614627861304 Q 1.7830429955064542 -1.9005854435604692 1.7696942849733004 -1.911768552569241 Q 1.7563455744401466 -1.9229516615780127 1.7553729463122436 -1.924965114960838 Q 1.7554275040138592 -1.9289647428756815 1.7625086894172584 -1.9348687087701193 Q 1.7695898748206575 -1.9407726746645573 1.7835885725226093 -1.9405817227089028 Q 1.7905879213735854 -1.940486246731076 1.7970259393208883 -1.9358980090617517 Q 1.8034639572681912 -1.9313097713924279 1.8073953880560154 -1.926255678797258 Q 1.814312900354568 -1.9201607609471658 1.8271275588348566 -1.906484704204319 Q 1.8399422173151452 -1.892808647461472 1.855243003816807 -1.8780985851764047 Q 1.870543790318469 -1.8633885228913374 1.8823790009581525 -1.8512259660419605 Q 1.8853378036180735 -1.8481853268296164 1.885283245916458 -1.844185698914773 Q 1.885160491087823 -1.8351865361063755 1.8781884210876547 -1.8372818260416242 M 2.631958996767453 -0.9563800645397083 Q 2.5866179188522125 -0.9687569241367164 2.55856066450007 -1.0064768191288715 Q 2.530240072709694 -1.0432320103355959 2.512931429644975 -1.1013410533087695 Q 2.495622786580256 -1.1594500962819434 2.482131236137791 -1.2258464671666418 Q 2.468639685695326 -1.2922428380513402 2.4542264542190413 -1.3552627456870312 Q 2.4398132227427567 -1.4182826533227224 2.418774832791148 -1.4665256439871084 Q 2.3554407635727586 -1.4205822475493148 2.2989469665877476 -1.3712167646466187 Q 2.2424531696027366 -1.3218512817439227 2.1877988339889387 -1.2621360944075812 Q 2.163235409051357 -1.2367070135092126 2.1403836774622977 -1.2175485072161432 Q 2.117531945873238 -1.1983900009230737 2.103061389091778 -1.202340062496587 Q 2.080873202026873 -1.2083968235759739 2.0900900123650707 -1.242161456066047 Q 2.09193337443271 -1.2489143825640614 2.0951364464431315 -1.256851027301988 Q 2.098339518453553 -1.2647876720399143 2.1029023004067566 -1.2739080350177523 Q 2.1145725927279995 -1.2976736462477785 2.1400159761799324 -1.3358198680596158 Q 2.1654593596318654 -1.3739660898714534 2.196560597309407 -1.4157508121383902 Q 2.2276618349869493 -1.457535534405327 2.2581920748042696 -1.495329772811424 Q 2.28872231462159 -1.533124011217521 2.3108296571118423 -1.557150359421497 L 2.322497348968801 -1.569514216697083 Q 2.296012317853211 -1.5788170725385025 2.2650961735035344 -1.579481917294799 Q 2.2341800291538583 -1.5801467620510956 2.201200208049919 -1.5694541758367053 Q 2.1877804005571115 -1.5658612985975013 2.1890970877482827 -1.5706848175246546 Q 2.1922571370070933 -1.5822612629498225 2.2197981183399045 -1.5882189762045655 Q 2.235147333403573 -1.5912851785673012 2.259573888693469 -1.5934283996640748 Q 2.284000443983365 -1.5955716207608486 2.312941557546285 -1.587671497613822 Q 2.317765076473438 -1.5863548104226508 2.323070947293307 -1.5849064545123628 Q 2.3283768181131754 -1.5834580986020745 2.3329369996020946 -1.5811767076254728 Q 2.35679905819248 -1.6078338297475063 2.3874609667289173 -1.6461104200463188 Q 2.4181228752653547 -1.684387010345131 2.4481277404383492 -1.7259527181575869 Q 2.4781326056113433 -1.7675184259700425 2.500724900458595 -1.8028148594093412 Q 2.523317195305847 -1.8381112928486396 2.5303386601706648 -1.8600361424753107 Q 2.487612753387775 -1.8022477622455462 2.441645952771422 -1.7629660458739767 Q 2.395679152155069 -1.7236843295024071 2.344276112231872 -1.6910694941256303 Q 2.3194519503203406 -1.676077463396271 2.2847161128841256 -1.657053226286603 Q 2.249980275447911 -1.6380289891769348 2.2123946496391573 -1.621855840671948 Q 2.174809023830404 -1.6056826921669614 2.1409088219247874 -1.5973145196807836 Q 2.1070086200191707 -1.5889463471946061 2.082891025383404 -1.5955297831504616 Q 2.0423734663953166 -1.6065899555562986 2.0280384790294 -1.628124999954187 Q 2.013703491663484 -1.6496600443520752 2.0171294788248133 -1.6736029475171137 L 2.0184461660159845 -1.678426466444267 Q 2.0221328901512634 -1.6919323194402962 2.02871112517855 -1.693246406167183 Q 2.02871112517855 -1.693246406167183 2.0306405327494113 -1.6927197312907145 Q 2.034499347891134 -1.6916663815377777 2.032129310947026 -1.6829840474689017 Q 2.029495936564684 -1.6733370096145952 2.030194702447596 -1.6607072144364903 Q 2.030893468330508 -1.6480774192583856 2.045364025111968 -1.6441273576848725 Q 2.0579051743225665 -1.6407039709878277 2.089303670564958 -1.639907457512414 Q 2.12070216680735 -1.6391109440370002 2.1619262930712027 -1.6496262383163782 Q 2.2141141443805332 -1.662331677140567 2.289242373246429 -1.6983177748377822 Q 2.3643706021123254 -1.7343038725349975 2.463495158752009 -1.8088311982014016 Q 2.4896360078547115 -1.8286467478579143 2.5102962946668175 -1.8530681022192415 Q 2.530956581478924 -1.8774894565805686 2.5484581192643616 -1.896035242493948 Q 2.5659596570497993 -1.914581028407327 2.5844663209079943 -1.9178219222407906 Q 2.592973963506142 -1.918609334091209 2.5977974824332954 -1.9172926469000378 Q 2.616126854356478 -1.9122892355735877 2.6201994830241127 -1.8873360054072235 Q 2.624272111691748 -1.8623827752408588 2.616371988544721 -1.8334416616779392 Q 2.6145286264770817 -1.8266887351799246 2.6128169331285593 -1.8204181605746252 Q 2.611105239780037 -1.8141475859693261 2.6073324701415364 -1.8079213343477798 Q 2.599434947458794 -1.7903819747393 2.573642181065405 -1.758550650516515 Q 2.547849414672016 -1.72671932629373 2.5125830016629065 -1.6886630506815408 Q 2.477316588653797 -1.6506067750693516 2.4424451818020385 -1.6139975551353085 Q 2.40757377495028 -1.5773883352012654 2.381518971350799 -1.5502931841702696 Q 2.4050186446783064 -1.5262564341091562 2.422641449325724 -1.4996775560974913 Q 2.440887376209969 -1.5133555000999641 2.4584319367470173 -1.5282614853261016 Q 2.475713159845832 -1.5422027667668088 2.4939590867300767 -1.5558807107692816 Q 2.5519429621448446 -1.601211386827385 2.624224003102486 -1.651450327083721 Q 2.696505044060128 -1.7016892673400572 2.776064386160111 -1.7463133761223952 Q 2.8543956870364284 -1.7902361185575368 2.935881836242988 -1.8229317985089666 Q 3.0173679854495474 -1.8556274784603963 3.0937620773621504 -1.8658716339086867 Q 3.1098126587730155 -1.8677097950477575 3.1257315714647635 -1.869065604294113 Q 3.1416504841565116 -1.8704214135404682 3.1569110532526743 -1.869365463323247 Q 3.1600685020472 -1.869540154793975 3.162611930229894 -1.8693641630911049 Q 3.165155358412588 -1.8691881713882346 3.1661200621980186 -1.8689248339500004 Q 3.1709435811251723 -1.8676081467588292 3.1718196389430964 -1.8632226567406383 Q 3.171905684446318 -1.8559430553661551 3.16831020674283 -1.8579611089045227 Q 3.154892999714307 -1.8657699856197585 3.1276153558197297 -1.860776976150446 Q 3.1003377119251527 -1.8557839666811335 3.06805925716841 -1.8438633392430783 Q 3.0357808024116673 -1.8319427118050235 3.008589204020312 -1.8196701009612277 Q 2.9826256468526218 -1.8080988564646288 2.949512856797423 -1.7912230413803032 Q 2.9164000667422245 -1.7743472262959776 2.888550124755284 -1.7596628559886056 Q 2.860700182768343 -1.7449784856812334 2.8484197705316943 -1.737964822209269 Q 2.8314905308386202 -1.7291103971339494 2.800043810916049 -1.7107432033877248 Q 2.7685970909934774 -1.6923760096415004 2.729387117571566 -1.6683535621339511 Q 2.690177144149654 -1.644331114626402 2.648247750842178 -1.617941230639029 Q 2.6063183575347018 -1.5915513466516562 2.5679414191791032 -1.5667832098131576 Q 2.529564480823505 -1.5420150729746587 2.500266182926276 -1.5220248318474179 Q 2.4825469309184993 -1.5102762954158064 2.46666974074622 -1.4995798085049896 Q 2.4507925505739405 -1.4888833215941728 2.4362307473606903 -1.4773094766332893 Q 2.45797310412378 -1.4392401986996781 2.4790101938432465 -1.3852963310580722 Q 2.500047283562713 -1.3313524634164662 2.520513375421958 -1.2734181119140204 Q 2.540979467281203 -1.2154837604115745 2.5610961761989923 -1.1638643064981813 Q 2.5812128851167815 -1.1122448525847877 2.6027805504091432 -1.0773330234457028 Q 2.624173524230777 -1.0455786431011442 2.6452601378625653 -1.0164993596583964 Q 2.666346751494354 -0.9874200762156484 2.68949964234469 -0.9810999776980274 Q 2.7049349029115803 -0.9768865786862798 2.720899438819224 -0.9860043411998336 Q 2.736863974726867 -0.9951221037133873 2.7481822836423695 -1.0138008585780258 Q 2.759500592557872 -1.0324796134426644 2.768451464993551 -1.053877788192867 Q 2.77740233742923 -1.0752759629430693 2.787229267682833 -1.0922886476750806 Q 2.7887206463447325 -1.0939547178077078 2.7906500539155936 -1.0934280429312393 Q 2.7916147577010246 -1.0931647054930052 2.7889813833186823 -1.0835176676386986 Q 2.783977971992232 -1.065188295715516 2.7826586843367767 -1.0489630228339228 Q 2.781339396681321 -1.0327377499523298 2.777389335107808 -1.0182671931708698 Q 2.7739659484107633 -1.0057260439602713 2.766069725960163 -0.9938875613290115 Q 2.758173503509563 -0.9820490786977516 2.7409809263782554 -0.9722299498370014 Q 2.7139640194576278 -0.9567998901986796 2.6859850092158544 -0.9530349219530321 Q 2.658005998974081 -0.9492699537073844 2.631958996767453 -0.9563800645397083 M 2.1113108951802606 -1.2249662784704543 Q 2.1142050065365527 -1.2241762661557516 2.122626603631479 -1.2322432793806528 Q 2.1285921182790752 -1.2389075599111612 2.1550849507875185 -1.2638099659330615 Q 2.1815777832959613 -1.2887123719549618 2.211754739475399 -1.3157188770184516 Q 2.250353292749763 -1.3507923953068424 2.300925898070931 -1.3955546739690086 Q 2.351498503392098 -1.4403169526311748 2.4087810124596696 -1.4868756699129428 Q 2.4006279537315467 -1.502576868382352 2.391684882688721 -1.5153839554954691 Q 2.382741811645895 -1.5281910426085863 2.3710793207175054 -1.5386306932418798 L 2.3194077424275057 -1.4822476461707927 Q 2.31195084911801 -1.4739172955076574 2.2946683257870535 -1.4542751370897304 Q 2.277385802456097 -1.4346329786718033 2.257120521801342 -1.4116586799886222 Q 2.2368552411465874 -1.388684381305441 2.2193093803773962 -1.3680775191020835 Q 2.2017635196082055 -1.3474706568987258 2.192815247636811 -1.3374742361029632 Q 2.1806208809033842 -1.3231809712565157 2.163075020134193 -1.3025741090531582 Q 2.1455291593650023 -1.2819672468498005 2.131448407812325 -1.2645608561925799 Q 2.1173676562596477 -1.2471544655353595 2.113858224059381 -1.241892917699244 Q 2.112366845397482 -1.2402268475666167 2.111708501801896 -1.23781508810304 Q 2.111050158206311 -1.2354033286394634 2.1105234833298425 -1.2334739210686023 Q 2.108416783823969 -1.225756290785157 2.1113108951802606 -1.2249662784704543 M 2.984111107379079 -1.4559954451785426 Q 2.96108420812517 -1.4680686349289909 2.972693044423678 -1.4902098842115956 Q 2.9796583462027826 -1.5034946337811583 2.994276207132502 -1.507686070508509 Q 3.0088940680622214 -1.5118775072358592 3.020407517689176 -1.505840912360635 Q 3.0319209673161307 -1.499804317485411 3.034384161033449 -1.4883508168541209 Q 3.0368473547507677 -1.4768973162228307 3.029039459932935 -1.4663125734997569 Q 3.0203459151437984 -1.4561921842286236 3.0079852360749157 -1.453075517265971 Q 2.995624557006033 -1.4499588503033183 2.984111107379079 -1.4559954451785426 M 2.6377133535298807 -1.144191666932944 Q 2.591659555022063 -1.1683380464338404 2.621842529398184 -1.2259052945686129 Q 2.6283434777253483 -1.2383043941668714 2.6393587897741866 -1.2528530332945258 Q 2.65265281215015 -1.2695942688841526 2.676536213652388 -1.2903808783403123 Q 2.700419615154625 -1.3111674877964723 2.7269599665707753 -1.3305610368968113 Q 2.7535003179869255 -1.3499545859971502 2.7738795401333225 -1.3629809939712543 Q 2.7901656950774094 -1.372507858992718 2.8118949206470507 -1.3859555634861862 Q 2.8336241462166925 -1.399403267979654 2.8530746614592086 -1.4106583760111497 Q 2.872525176701725 -1.4219134840426455 2.8779682473272796 -1.4258343235146498 Q 2.889318742030329 -1.4345616524299623 2.9087430924033564 -1.4328456650798178 Q 2.9281674427763846 -1.4311296777296736 2.940566542374643 -1.424628729402509 Q 2.95473694191551 -1.417199074171464 2.950557760848047 -1.4092282244297263 Q 2.947771640136405 -1.4039143246019012 2.941907272991487 -1.4013434885531415 Q 2.9106849665265573 -1.3827110550295778 2.8690624007287475 -1.3582404192305841 Q 2.8274398349309378 -1.3337697834315905 2.786217037186203 -1.3068313175120783 Q 2.744994239441469 -1.2798928515925658 2.7127140552749296 -1.2527821579427476 Q 2.68043387110839 -1.2256714642929292 2.667431974454061 -1.200873265096412 Q 2.6604666726749566 -1.187588515526849 2.6611585664496666 -1.1770637217994397 Q 2.6618504602243767 -1.1665389280720302 2.6751352097939396 -1.1595736262929255 Q 2.6893056093348067 -1.1521439710618804 2.7146589122516174 -1.1563522998523188 Q 2.740012215168428 -1.1605606286427572 2.7663372819216963 -1.1687759107703526 Q 2.792662348674964 -1.176991192897948 2.8066267363593496 -1.1820898080628908 L 2.83409115827618 -1.1914013884214725 Q 2.8408411753924026 -1.1935078710182918 2.846937719263291 -1.1965215320527036 Q 2.8530342631341794 -1.1995351930871154 2.8588986302790977 -1.202106029135875 Q 2.862948640548831 -1.2033699186939666 2.86471994049144 -1.202441211790086 Q 2.870033840319265 -1.199655091078444 2.865854659251802 -1.1916842413367064 Q 2.8635328919921004 -1.1872559914801855 2.858132878299122 -1.1855708054027299 Q 2.841889780287612 -1.1782795937758148 2.8261110357280415 -1.171874032120204 Q 2.8103322911684714 -1.165468470464593 2.793667896637597 -1.1595272622609223 Q 2.7575960437967826 -1.1445665994203047 2.7153676980894157 -1.135092064137818 Q 2.6731393523820484 -1.1256175288553312 2.6377133535298807 -1.144191666932944 M 2.9499651464365693 -0.946844851904259 Q 2.9207521665812823 -0.967882955620483 2.92111278277816 -1.0008961341399554 Q 2.9214733989750377 -1.0339093126594276 2.9413427191514714 -1.061499349189421 Q 2.944849069770842 -1.0663681791653021 2.9487611562215363 -1.0709448132562356 Q 2.95267324267223 -1.0755214473471693 2.9569910649542477 -1.0798058855531554 Q 2.9733206504352796 -1.0939248316192638 2.9979269164433355 -1.0990023972900138 Q 3.022533182451392 -1.1040799629607638 3.0306478990778603 -1.0982360452618127 Q 3.0312322908477554 -1.0990475169244596 3.034478177498343 -1.0967099498448791 Q 3.0547649690645144 -1.0821001555975014 3.0845639928495636 -1.0772764452560661 Q 3.114363016634613 -1.0724527349146307 3.1433188368408507 -1.0750140775672286 Q 3.172274657047089 -1.0775754202198264 3.190324033761774 -1.085526520785872 Q 3.201621173206502 -1.0909463584556167 3.2057119155957676 -1.0966266600941448 Q 3.213309008604404 -1.107175791708554 3.1995139903394074 -1.117110451796771 Q 3.1946451603635264 -1.1206168024161416 3.1882018110165316 -1.1227924055951661 Q 3.1817584616695367 -1.1249680087741907 3.1740979048285713 -1.1280201996080577 Q 3.150758922428533 -1.1349694370144703 3.1164149964687144 -1.1369045725824618 Q 3.0820710705088956 -1.138839708150453 3.0440254459531193 -1.1305012159509669 Q 3.0197113758300107 -1.1258293861115403 2.9806105076808196 -1.1151700188704896 Q 2.941509639531629 -1.1045106516294387 2.900363400187805 -1.091011133569124 Q 2.859217160843981 -1.0775116155088091 2.8290591730219212 -1.064725069042914 Q 2.819742288779631 -1.0603437829285678 2.810620752513928 -1.061367294605818 Q 2.8014992162482253 -1.0623908062830678 2.7950074429470506 -1.0670659404422287 Q 2.7885156696458755 -1.0717410746013896 2.7862766026345223 -1.0788990477026712 Q 2.7840375356231695 -1.0860570208039528 2.7892970615522255 -1.0933602657677746 Q 2.792803412171596 -1.0982290957436556 2.7993285695488024 -1.1021562220724983 Q 2.815527923045442 -1.112671969610876 2.837960238034341 -1.126709107646773 Q 2.86039255302324 -1.14074624568267 2.882126936295868 -1.154669843772191 Q 2.9038613195684957 -1.168593441861712 2.919703361187992 -1.176901854304901 Q 2.94836863766915 -1.1944603828383173 2.9812215044479333 -1.2127001510499889 Q 3.014074371226717 -1.2309399192616601 3.055659730477896 -1.252749501925031 Q 3.1006212083640534 -1.2758247160365521 3.1598986324527742 -1.3033780641707797 Q 3.219176056541495 -1.3309314123050071 3.2823972989970747 -1.35626073330603 Q 3.345618541452654 -1.381590054307053 3.4039859938105 -1.3993239344593067 Q 3.462353446168347 -1.4170578146115602 3.506890844025299 -1.4207211726518854 Q 3.5492209067870615 -1.4247418425693539 3.57260831314128 -1.415293074182805 Q 3.595995719495499 -1.4058443057962557 3.6117709929629322 -1.3969481972634377 Q 3.567330443014341 -1.3882857772628396 3.52410710055972 -1.378746769607399 Q 3.480883758105099 -1.3692077619519583 3.4325795456599937 -1.3534691768802904 Q 3.355643440809762 -1.3287743237632097 3.277700516320296 -1.2992590646244282 Q 3.1997575918308305 -1.2697438054856465 3.1292798762057425 -1.2317715577214012 Q 3.0782474007278817 -1.2019774904159535 3.025137822139224 -1.17614393351538 Q 2.9720282435505663 -1.1503103766148064 2.9287865568980624 -1.1210673170032222 Q 2.959041392628482 -1.1288548015088447 2.9991323883788916 -1.1400334445275946 Q 3.039223384129301 -1.1512120875463447 3.081164403097756 -1.1598260835927627 Q 3.123105422066211 -1.1684400796391805 3.160484846821881 -1.1698643706681526 Q 3.1978642715775507 -1.1712886616971245 3.223280357088387 -1.1603789138858378 Q 3.230129442266705 -1.1579111148218657 3.234998272242586 -1.154404764202495 Q 3.2398671022184673 -1.1508984135831244 3.2439244605317015 -1.1479764547336488 Q 3.26502272376052 -1.132782268716376 3.267520602580789 -1.1174277709584142 Q 3.2700184814010584 -1.1020732732004526 3.2600838213128416 -1.088278254935456 Q 3.2437208517557785 -1.065557048381344 3.204149131783068 -1.0533882777613752 Q 3.178081886350274 -1.0462820329340081 3.1439166163290273 -1.0493208360495938 Q 3.109751346307781 -1.0523596391651795 3.0776481395191824 -1.062539723344031 Q 3.0455449327305844 -1.0727198075228825 3.0246737493945175 -1.0865181301076134 Q 3.01918714357271 -1.0806107485763337 3.0126452941574877 -1.0723824920034892 Q 3.0061034447422657 -1.0641542354306446 2.9996751352734194 -1.0552280471415292 Q 2.981558990406671 -1.0300724255994766 2.97076278254176 -1.0039584083723696 Q 2.9599665746768493 -0.9778443911452628 2.9770074795924333 -0.9655721639774655 Q 2.9810648379056675 -0.9626502051279899 2.988319658915309 -0.9598902101790703 Q 2.995574479924951 -0.9571302152301506 3.006611155400895 -0.9553436558444338 Q 3.030891841447972 -0.9514132251958569 3.060724249309053 -0.955191775342425 Q 3.0905566571701337 -0.9589703254889933 3.1202271011306584 -0.9659463383319689 Q 3.1355815988886198 -0.968444217152238 3.148728761551393 -0.9712994078496506 Q 3.161875924214166 -0.9741545985470633 3.1747960069841867 -0.9784056526770178 Q 3.1781721256191657 -0.9796712841251682 3.1797950689444594 -0.978502500585378 Q 3.184663898920341 -0.9749961499660074 3.179404372991285 -0.9676929050021856 Q 3.1764824141418093 -0.9636355466889513 3.170898960411641 -0.9627272271179443 L 3.1042214434507387 -0.9454324668730456 Q 3.0885096338156335 -0.9407272529575875 3.0718728125715056 -0.9373043625282955 Q 3.055235991327378 -0.9338814720990036 3.0382585502441226 -0.9325523768185245 Q 2.98080106961715 -0.9246379646482448 2.9499651464365693 -0.946844851904259 M 3.548206336174748 -1.003788931266818 Q 3.529456809555325 -1.021801572704085 3.5467766570911587 -1.0398299636842994 Q 3.5571685656126593 -1.050646998272428 3.5723753936090037 -1.0505981895683512 Q 3.587582221605348 -1.050549380864274 3.5969569849150593 -1.0415430601456406 Q 3.606331748224771 -1.032536739427007 3.605505120405935 -1.0208505644133796 Q 3.6046784925870994 -1.0091643893997524 3.5942299005900487 -1.0011752138929078 Q 3.583060172953789 -0.9938788322874964 3.570320636219124 -0.9943307214178403 Q 3.557581099484459 -0.9947826105481844 3.548206336174748 -1.003788931266818 M 3.1286314276965843 -0.8008852689648758 Q 3.0911323744577386 -0.8369105518394101 3.1361639780509067 -0.8837843683879671 Q 3.1458630926709734 -0.8938802673368872 3.1604967898143994 -0.9047823271383414 Q 3.1779300043013343 -0.9171549999559879 3.2066604842445168 -0.9304613714461573 Q 3.2353909641876992 -0.9437677429363265 3.2662848510485074 -0.9549957327221957 Q 3.2971787379093156 -0.966223722508065 3.320381037509919 -0.9730540441142447 Q 3.338677096324938 -0.9776642753272483 3.3632933254661834 -0.9845229386712033 Q 3.3879095546074285 -0.9913816020151582 3.409726266405165 -0.9967696523429208 Q 3.4315429782029017 -1.0021577026706834 3.4378631485291273 -1.0044061348016349 Q 3.4511962830830125 -1.0096241347027461 3.469372678849517 -1.00256236177101 Q 3.4875490746160214 -0.995500588839274 3.4976449735649413 -0.985801474219207 Q 3.5091831437922782 -0.9747167717962734 3.502947998679378 -0.9682265510433963 Q 3.498791235270778 -0.9638997372081448 3.492442723206777 -0.9630652346178354 Q 3.45726453511738 -0.9538731139296034 3.4104710263587945 -0.9419727972086025 Q 3.363677517600208 -0.9300724804876016 3.3165801244975683 -0.9156907016360335 Q 3.2694827313949286 -0.9013089227844655 3.2309255990116905 -0.8842693352782649 Q 3.192368466628453 -0.8672297477720643 3.172970237388319 -0.8470379498742243 Q 3.1625783288668186 -0.8362209152860957 3.1603094297695655 -0.8259203280753351 Q 3.1580405306723125 -0.8156197408645746 3.168857565260441 -0.8052278323430743 Q 3.180395735487778 -0.7941431299201406 3.2059173215637706 -0.7911184573484897 Q 3.2314389076397636 -0.7880937847768388 3.259010533682281 -0.7886464486634556 Q 3.2865821597247984 -0.7891991125500724 3.3014142490326512 -0.790203665567033 L 3.330385633746923 -0.791491635961746 Q 3.337455281450133 -0.7916333446506221 3.34415019046485 -0.7928284150605358 Q 3.350845099479568 -0.7940234854704495 3.357193611543569 -0.794857988060759 Q 3.3614354001654947 -0.7949430132740847 3.362877671443912 -0.7935574254712179 Q 3.3672044852791636 -0.7894006620626178 3.360969340166263 -0.7829104413097407 Q 3.3575053706590965 -0.7793047631136978 3.351849652496529 -0.7791913961625969 Q 3.3342180458451676 -0.7767162301294439 3.3172792330952396 -0.7749621997354993 Q 3.3003404203453117 -0.7732081693415548 3.2826804719561755 -0.7721469328490436 Q 3.2438682639329603 -0.7678327112086203 3.200672558598944 -0.770503112058081 Q 3.157476853264927 -0.7731735129075417 3.1286314276965843 -0.8008852689648758 M 3.389521771956206 -0.506399812372134 Q 3.3791495517138337 -0.5198689269400532 3.38517854863656 -0.5333467307710101 Q 3.3912075455592863 -0.5468245346019671 3.4054689609841415 -0.5578068854468314 Q 3.430822588406107 -0.5773310647265903 3.4739842090841186 -0.588481154432394 Q 3.5171458297621294 -0.5996312441381977 3.5652477704677223 -0.607643940335836 Q 3.613349711173315 -0.6156566365334744 3.654530579708985 -0.6252813997330469 Q 3.6957114482446554 -0.6349061629326194 3.717103571381939 -0.6513796891999158 Q 3.7274034825221123 -0.659311387032318 3.7309963016663876 -0.6677577857084716 Q 3.7345891208106625 -0.6762041843846252 3.7290979453882307 -0.6833348920970529 Q 3.721776378158321 -0.6928425023802899 3.7011042467757758 -0.698379919115807 Q 3.6792118541882455 -0.705501937565197 3.6407996940203335 -0.706213240056897 L 3.5817790223090373 -0.7074623640488912 Q 3.535562403987045 -0.7084743872103186 3.4854753665075924 -0.7071369730889983 Q 3.4353883290281395 -0.7057995589676778 3.393319729876792 -0.7030640580184474 Q 3.3512511307254442 -0.700328557069217 3.3279013761023624 -0.6962311238431759 Q 3.3097333869689476 -0.6935997419157242 3.302411819739038 -0.7031073521989613 Q 3.2981409055215907 -0.7086534581975161 3.300026227905191 -0.7176781775565819 Q 3.301911550288791 -0.7267028969156477 3.3106268597150916 -0.7334143335430647 Q 3.3161729657136467 -0.737685247760512 3.3251340652335517 -0.7407995206121349 Q 3.399572793735528 -0.7539477409863553 3.4790067728412084 -0.7753601897822854 Q 3.558440751946889 -0.7967726385782155 3.6264774537542133 -0.8100394093677192 Q 3.6454377437445644 -0.8132809218976633 3.6681542471086117 -0.8042692364331544 Q 3.6908707504726586 -0.7952575509686454 3.700632840112538 -0.7825807372576628 Q 3.709784799149925 -0.7706962244036164 3.7010694897236243 -0.7639847877761994 Q 3.6963156845820055 -0.7603240041612446 3.6773553945916544 -0.7570824916313004 Q 3.6571748433963185 -0.7554255808152291 3.6260206306191556 -0.7516288682589153 Q 3.5948664178419927 -0.7478321557026015 3.5607251718915283 -0.7429973521957467 Q 3.526583925941064 -0.7381625486888919 3.49634490906764 -0.7331773848471734 Q 3.466105892194216 -0.728192221005455 3.4483658634088497 -0.723366106761638 Q 3.466961812890313 -0.7238027563727244 3.5026283853470086 -0.7266568077372382 Q 3.538294957803704 -0.7295108591017518 3.5907314325659048 -0.7269778540656122 L 3.640363044409247 -0.7248091895383605 Q 3.68999465625259 -0.7226405250111086 3.7175603945169966 -0.7097902303087198 Q 3.7451261327814027 -0.696939935606331 3.7591591366387296 -0.6787170158967935 Q 3.7701414874835937 -0.664455600471938 3.770942477603568 -0.6486645139093322 Q 3.7717434677235424 -0.6328734273467267 3.754312848870941 -0.6194505540918924 Q 3.7337130265905945 -0.6035871584270884 3.7067979181112984 -0.5967441374898312 Q 3.679882809632003 -0.5899011165525739 3.6637273825605092 -0.586295263513742 Q 3.646779654632079 -0.5820792798724175 3.6166635328054575 -0.5752955341428019 Q 3.586547410978836 -0.5685117884131864 3.5532620857244686 -0.559287520273601 Q 3.519976760470101 -0.5500632521340155 3.492301161053449 -0.5401103029766543 Q 3.4646255616367974 -0.5301573538192931 3.452741048782751 -0.5210053947819062 Q 3.4424411376425774 -0.5130736969495041 3.4473221824625173 -0.5067352900940127 Q 3.453423488487442 -0.49881228152464857 3.4718098024264 -0.49214568871136855 Q 3.490196116365358 -0.4854790958980885 3.510563182446657 -0.48033782959103966 Q 3.530930248527956 -0.4751965632839908 3.5427598308058794 -0.47294690039150267 Q 3.5866631663962236 -0.46510489018737483 3.639099641158424 -0.4625718851512351 Q 3.646904099312505 -0.46227116448150785 3.648734491119982 -0.4598942619106986 Q 3.6505648829274597 -0.4575173593398893 3.645811077785841 -0.4538565757249345 Q 3.643434175215032 -0.4520261839174571 3.6379473444241186 -0.4509562830473358 Q 3.6324605136332053 -0.4498863821772146 3.6258763166841095 -0.44860250113306904 Q 3.6142925244997905 -0.44725500024976295 3.5932878625279376 -0.4474877564488107 Q 3.5722832005560847 -0.4477205126478585 3.551856859267144 -0.4496607656075814 Q 3.5208211969052643 -0.45226607974591954 3.4886245485460416 -0.45965700894545647 Q 3.456427900186819 -0.46704793814499346 3.424044736941634 -0.4812370444676505 Q 3.4159944886939484 -0.485134928913172 3.410047887635406 -0.4887595579770275 Q 3.4041012865768643 -0.4923841870408831 3.400868463309958 -0.4949432598661363 Q 3.3976356400430516 -0.49750233269138955 3.3947989672046135 -0.500366470817889 Q 3.3919622943661754 -0.5032306089443884 3.389521771956206 -0.506399812372134 M 3.395019578683774 -0.24205595169052968 Q 3.377393695134271 -0.2768457235940559 3.3960022659143103 -0.3098149682551681 Q 3.4146108366943495 -0.3427842129162803 3.466349471832927 -0.36899706537451465 Q 3.4752699261671642 -0.3735165226948999 3.484416353367421 -0.37758995729857325 Q 3.493562780567678 -0.38166339190224663 3.5038272260673775 -0.3857427495212466 Q 3.5502491266973726 -0.4025358177905918 3.6130604322708937 -0.4068935571299443 Q 3.675871737844415 -0.4112512964692968 3.7577959687843467 -0.3955853976792282 Q 3.8124121227443015 -0.3851414651525158 3.850114951561165 -0.35940245392041337 Q 3.8878177803780285 -0.33366344268831094 3.904539772463454 -0.30065776165163227 Q 3.9162903614964555 -0.2774645803826148 3.9164088218029884 -0.25510421439375464 Q 3.9156589287374044 -0.2278198294750838 3.885329384000997 -0.21245367458577402 Q 3.8630282481654032 -0.20115503128481094 3.8276858392692854 -0.20342750425926345 Q 3.7923434303731676 -0.2056999772337159 3.7479324917596464 -0.23140345037385848 Q 3.6900579494301953 -0.2659799937256253 3.6621794664116467 -0.29445437141126546 Q 3.6343009833930977 -0.3229287490969056 3.623014186122788 -0.3429938483336133 Q 3.609586120498818 -0.3451588087485795 3.585007486957052 -0.3416744475130642 Q 3.560428853415286 -0.3381900862775489 3.5351959933367683 -0.33157171999439716 Q 3.509963133258251 -0.32495335371124545 3.491218333125699 -0.31769852993732245 Q 3.4876501513920037 -0.31589074700916836 3.483409974075578 -0.3143030139317069 Q 3.4791697967591517 -0.3127152808542454 3.474709569592033 -0.3104555521940528 Q 3.4479482065893206 -0.2968971802328971 3.4335146599571145 -0.27781386994311946 Q 3.4190811133249084 -0.25873055965334185 3.4312836480899485 -0.23464533295090065 Q 3.442130345658873 -0.2132362425487307 3.4712995127049444 -0.1943839298566924 Q 3.5004686797510156 -0.1755316171646541 3.535656191965034 -0.16028894731359733 Q 3.570843704179052 -0.1450462774625406 3.601083505401953 -0.13514403418137302 Q 3.6313233066248545 -0.12524179090020546 3.6452033179808625 -0.12218478505181551 L 3.7553632094261555 -0.09504075593377115 L 3.8144751286451886 -0.08014844227059326 Q 3.8185071021415755 -0.0788281431664376 3.819410993605653 -0.0770440522995901 Q 3.822122667997884 -0.07169177969904761 3.814986304530494 -0.06807621384273937 Q 3.8123101682302227 -0.06672037664662384 3.8038061215360637 -0.0680169836894729 Q 3.786798028147746 -0.07061019777517108 3.7677680249959082 -0.07498157971239011 Q 3.7487380218440705 -0.07935296164960909 3.732170028157138 -0.08329016690076951 Q 3.711570060973819 -0.08854767125608559 3.680004037631435 -0.0955359593403094 Q 3.648438014289052 -0.10252424742453314 3.614184008615744 -0.11039273491152735 Q 3.5799300029424357 -0.11826122239852155 3.552598233901152 -0.1279552618596498 Q 3.5024186150470094 -0.14513099624432685 3.459565794434316 -0.1721843835652583 Q 3.416712973821623 -0.19923777088618977 3.395019578683774 -0.24205595169052968 M 3.6413544246459146 -0.34219657114541596 Q 3.6485737103278777 -0.33015988080952197 3.6669850250349243 -0.3159463840280085 Q 3.6853963397419705 -0.30173288724649505 3.708279727646789 -0.28754308252628813 Q 3.731163115551608 -0.27335327780608126 3.7529107161110034 -0.26251160496887677 Q 3.774658316670399 -0.2516699321316722 3.7890021197890986 -0.2454848442509725 Q 3.815453689427612 -0.2331028224589197 3.840050092015358 -0.23323312879610597 Q 3.8646464946031047 -0.23336343513329227 3.8789192215378847 -0.24059456684590866 Q 3.888731721305546 -0.24556596989833243 3.893382383246724 -0.25408778563847123 Q 3.8980330451879017 -0.26260960137861 3.893061642135478 -0.2724221011462712 Q 3.883570781762669 -0.29115505524817 3.8542111799425385 -0.3037452808602621 Q 3.824851578122408 -0.31633550647235414 3.785679476534616 -0.3239543290320225 Q 3.746507374946824 -0.3315731515916909 3.707799065121724 -0.3360638921190494 Q 3.6690907552966237 -0.340554632646408 3.6413544246459146 -0.34219657114541596" fill="#343432" fill-rule="nonzero"></path></g><g clip-path="url(#SvgjsClipPath1006)"><g clip-path="url(#afd48490f-c5a9-4144-8ae4-abc4860c33eb94f8b56f-505f-4fd1-932e-88f2dfd61c2a)"><path d=" M 3.3435633681977266 1.2811129335200446 C 3.3132373779483477 1.323856187344507 3.218694054292514 1.3038984072749833 3.1159954981236715 1.2776705238160613 C 3.0969802826159536 1.2728347578033226 3.081038647201077 1.268736651012866 3.0706294559533176 1.266933484025065 C 3.0488275278280885 1.263245187913654 3.0262469594126724 1.2595159107343386 3.0051007283739164 1.2625075286913718 C 2.9838725351993514 1.265704051987928 2.9667014677473382 1.2763181485752104 2.9592019323208025 1.290989370885045 C 2.9542022420364455 1.3008248271821408 2.9539153745611135 1.3128732611460834 2.958341329894807 1.3250446383137393 C 2.9636688687224 1.3394699742161467 2.974651794920824 1.3513544839084706 2.9878476987860942 1.3568459470076826 C 2.995761351139794 1.3601808531455943 2.9994964286554717 1.3692805272891821 2.9962078366386256 1.3772135377562518 C 2.9928900830321408 1.3851444808271123 2.9837731979165043 1.3888866228061667 2.975840245890056 1.3855736756087835 C 2.954123758560291 1.3760410096468259 2.937256530443091 1.3580335035972066 2.9291628095467557 1.335740697036831 C 2.9216632741202204 1.3154140873561664 2.922482895478311 1.2944727616569331 2.931498730417316 1.2768509024579697 C 2.943547164381258 1.2532867884128445 2.969365237161135 1.2364435695040679 3.0004698677007005 1.2317717277629474 C 3.0266157890238135 1.2277555831082998 3.0528026914148314 1.2323044816457067 3.0758750326451016 1.2362796452324496 C 3.0868579588435257 1.2381647743560595 3.1037011777523023 1.2424268054181344 3.12369993888973 1.2475084578383007 C 3.175745895128529 1.2608273049072847 3.297746534280422 1.2919319354468501 3.3181960871648 1.2631222447099404 C 3.319589443473556 1.2611551534505212 3.3213516293934515 1.2577947058823467 3.3200812162884104 1.2520163753078029 C 3.3175813711462316 1.2409924680414746 3.305614899318099 1.2271408670897312 3.291599374094737 1.219149558848341 C 3.2006623844145055 1.1673904700848743 2.912196647434265 1.0205143227149098 2.6068467104773445 0.864991170017082 C 2.3073160851628716 0.7124186542083832 1.9976221550080668 0.5547235049116134 1.8423448887176666 0.4705483914356349 L 1.5334295988530484 0.3066651008852757 C 1.4729005615580046 0.2694133101600254 1.4458530567409908 0.18679547726442033 1.4710154324343945 0.11811120745636795 C 1.4947024896832335 0.0534430823029629 1.5594115959045434 0.006191911008998254 1.632030048231434 0.0005775047060728406 C 1.7013290340580554 -0.004913958393139069 1.771857451921813 0.028280706609559395 1.8108714285669598 0.08491654245366949 C 1.8323456989735885 0.1165856825023712 1.8439669204728928 0.15390192380749965 1.844270998909181 0.19216399715991858 C 1.8443037344969748 0.19629420049278412 1.8426943458900433 0.200268231949204 1.839796906929211 0.20321178399694664 C 1.8368994679683779 0.20615533604468944 1.8329513416743095 0.2078272680022822 1.828821136309159 0.2078597461673674 L 1.8286981931054458 0.2078597461673674 C 1.8201611817762022 0.207860219144949 1.8132152505658958 0.20098740300001464 1.8131253873017104 0.1924508646352506 C 1.812937228363962 0.1604017886342636 1.8032540429257218 0.1291275240303454 1.7852992421945109 0.10257938272053838 C 1.752350463599239 0.05487741967962248 1.6925590855264776 0.027174217776136076 1.6344889123057076 0.03155919204192451 C 1.5747385153008504 0.036190052715140406 1.5194960357654954 0.07618757498999686 1.5002759149182543 0.12884824724736402 C 1.4799902863054941 0.18413170785062347 1.5013824037516774 0.2503980946523068 1.5489204425209737 0.2796585771361667 L 1.857057092095405 0.4431320570074802 C 2.012088471978378 0.5271432462118405 2.3215774967936604 0.6847974144407056 2.620944197836515 0.8372879681135955 C 2.9266629644045765 0.992934064015137 3.215415568860148 1.1400151167246242 3.3070082556268527 1.1921020540313274 C 3.323687550264012 1.2016096617851868 3.3450796677101953 1.2212805743793784 3.3504481876056937 1.2452954801714542 C 3.3533168623590135 1.258327459765106 3.3509399604205488 1.2707037422722849 3.3435633681977266 1.2811129335200446 M 0.6878262437102345 1.291849973311041 C 0.6804949024955594 1.2874784096311103 0.671016288875298 1.289730034322513 0.6664341262640509 1.2969316257312071 C 0.6642650296623178 1.300447502039851 0.663581823392089 1.3046811805314817 0.6645348712011467 1.3087008902422672 C 0.6654879190102051 1.3127205999530527 0.6679991139821053 1.3161969060660523 0.671515778684217 1.3183647242452952 C 0.6788310645063357 1.32281757275112 0.6854809913854769 1.3282809981538999 0.6912686534142177 1.3345932271355034 C 0.706144781063575 1.3508217300257115 0.7136033354222062 1.3742219197992187 0.7118001684344054 1.3987695794740536 C 0.7099970014466046 1.4233172391488886 0.6991370184518947 1.445365053681545 0.6820888942035953 1.4592166546332883 C 0.6649997888873913 1.4730272745171271 0.641312731638552 1.479174434702812 0.6168470340995263 1.475977911406256 C 0.59246329869631 1.4726994259738906 0.571071181250126 1.4606100109420437 0.5582031259280928 1.4427832464035575 C 0.5558235764630538 1.439404549497133 0.5521835514836545 1.4371265821480763 0.5481045669510011 1.4364634580085525 C 0.5440255824183476 1.4358003338690282 0.5398514185791885 1.436807941599189 0.5365241410065774 1.439258874563765 C 0.5331731472669212 1.441659621965358 0.5309172311456957 1.445296982331202 0.5302557612898957 1.4493657910953663 C 0.5295942914340963 1.4534345998595308 0.5305818275895351 1.4575992511436984 0.5329997691667848 1.46093785948528 C 0.5508265337052713 1.4857314055675426 0.5799230919175126 1.5024107002047007 0.6127899083769749 1.5067956744704896 C 0.6183607190020531 1.5075286256284488 0.623973326679928 1.5078982363779674 0.6295921462178468 1.5079021633039127 C 0.6565167078311466 1.5079021633039127 0.6820888942035959 1.4993371201118582 0.701677844661978 1.4833545036290778 C 0.7253649019108175 1.4641343827818363 0.7403639727638884 1.434136241075694 0.7428228368381624 1.4010645192767093 C 0.7452817009124364 1.3679927974777246 0.734831528596772 1.3361095266479721 0.7142180514407751 1.3136109203683655 C 0.7064759275700606 1.3051648547829886 0.6975929877045531 1.2978405674094105 0.6878262437102345 1.291849973311041 M 0.4015325033289366 1.2713184582908534 C 0.3872710916981475 1.2711135529513307 0.08118349551894488 1.2708676665439034 0.04389072372578924 1.2708266854759986 C 0.03988935229313674 1.2690475887595163 0.03632335883740808 1.2664185426039198 0.033440551410125474 1.2631222447099404 C 0.0320062140334653 1.2611141723826165 0.030244028113568713 1.2577537248144421 0.03159640335441979 1.2519344131719938 C 0.03405526742869403 1.2408285437698565 0.04602173925682708 1.2270589049539222 0.05999628341228401 1.2191905399162457 C 0.14572867746863552 1.1709148419246669 0.44775914792528726 1.017850553301113 0.7674934397167104 0.8557704297385549 C 1.1046446853675744 0.6848383955086103 1.4533116110996216 0.5080870496362173 1.6087937827295447 0.4239119361602388 C 1.613676598159961 0.42126189251157625 1.6167747241959378 0.41620820014873866 1.616921126717283 0.4106545361177521 C 1.6170675292386278 0.40510087208676576 1.6142399662190208 0.39989097009122376 1.6095035533066169 0.3969873498353117 C 1.604767140394213 0.3940837295793997 1.5988414514029903 0.39392752006528275 1.593958636077051 0.396577563906449 C 1.4388452941293095 0.4805067909364444 1.0903832737367851 0.657176174673028 0.753436933425444 0.8280262467671634 C 0.43337479309078364 0.9902293135334356 0.13105745515880093 1.1434985074965123 0.044710345083880255 1.192061072963423 C 0.02803105044672237 1.2014457375135683 0.006638933000538443 1.221034687971951 0.0012294320371359327 1.2451315558998357 C -0.00182082855313001 1.2575633277641838 0.0006763185456769794 1.270706994230357 0.008073270377198618 1.2811539145879491 C 0.014958089785165558 1.2907434844776176 0.024670602878547405 1.2960710233052113 0.03327662713850608 1.300333054367286 L 0.04016144654647361 1.3019722970834686 C 0.04016144654647361 1.3019722970834686 0.3859187164572964 1.3022181834908961 0.4010817115819862 1.3024640698983234 L 0.40132759798941353 1.3024640698983234 C 0.409769697977754 1.3024640698983234 0.4167364795215306 1.295620231558261 0.41690040379314824 1.2870961694341112 C 0.41699167015890537 1.2785042977651861 0.4101238018187461 1.2714532862692904 0.401532503328936 1.2713184582908534 M 2.8215465252293646 1.2736133980935092 L 0.7042596519399648 1.2269359617502085 L 0.7039318033967283 1.2269359617502085 C 0.637337568051809 1.2269359617502085 0.5112798031773639 1.2393942063931964 0.5112798031773639 1.2863585102118291 C 0.5112798031773639 1.318651591720627 0.5704154841636526 1.3343063596601712 0.6292642976746098 1.341109216932329 C 0.6473779296884279 1.3448384941116447 0.6409848830953155 1.3249216951100256 0.6260677743780536 1.3185286485169132 C 0.5817672399732177 1.3116028480410415 0.5515232118596478 1.3000052058240494 0.5515232118596478 1.2863994912797336 C 0.5515232118596478 1.2648024684940273 0.6247563802051074 1.2473035524987777 0.7150376727988659 1.2473035524987777 C 0.8053599464605291 1.2473035524987777 0.8785931148059885 1.2648024684940273 0.8785931148059885 1.2863994912797336 C 0.8785931148059885 1.3052098014479294 0.8321205838022108 1.320823588319569 0.7581087751665646 1.3245528654988845 C 0.7438883446036801 1.3285280290856274 0.7521255392524981 1.3468055853710637 0.7659361591363368 1.3446745698400264 L 2.821546525229365 1.299103622330149 C 2.828585456287197 1.299103622330149 2.8342916373476847 1.2933974412696607 2.8342916373476847 1.2863585102118291 C 2.8342916373476847 1.2793195791539973 2.828585456287197 1.2736133980935092 2.821546525229365 1.2736133980935092" fill="#343432" transform="matrix(1,0,0,1,0,0)" fill-rule="nonzero"></path></g></g><g transform="matrix(-0.006983411620900795,-0.9999756156837691,0.9999756156837691,-0.006983411620900795,-1.6222646152620874,-0.0770847676433537)"><g clip-path="url(#SvgjsClipPath1007)"><path d=" M -0.8494064674108586 0.8774281632530717 C -0.8425759096522379 0.8774281632530717 -0.8391057346522379 0.8727663106668648 -0.8327094113763759 0.8643086072185889 L -0.7685228932729276 0.7785460632530716 C -0.7650527182729276 0.7739915356668647 -0.7634268062039621 0.7696553589427269 -0.7634268062039621 0.7649922727358303 C -0.7634268062039621 0.7603304201496234 -0.7650527182729276 0.7559930098047958 -0.7685228932729276 0.7514397158392786 L -0.8327094113763759 0.6656765550634165 C -0.8391057346522379 0.6572195917875544 -0.8425759096522379 0.6525573691151406 -0.8494064674108586 0.6525573691151406 C -0.856345583790169 0.6525573691151406 -0.8598157587901689 0.6572195917875544 -0.8662120820660311 0.6656765550634165 L -0.9303989702556862 0.7514397158392786 C -0.9338685284453414 0.7559930098047958 -0.9354949339625828 0.7603304201496234 -0.9354949339625828 0.7649922727358303 C -0.9354949339625828 0.7696553589427269 -0.9338685284453414 0.7739915356668647 -0.9303989702556862 0.7785460632530716 L -0.8662120820660311 0.8643086072185889 C -0.8598157587901689 0.8727663106668648 -0.856345583790169 0.8774281632530717 -0.8494064674108586 0.8774281632530717 Z" fill="#343432" transform="matrix(1,0,0,1,0,0)" fill-rule="nonzero"></path></g></g><g transform="matrix(0.006983411620900795,-0.9999756156837691,-0.9999756156837691,-0.006983411620900795,4.938619858702149,4.97322954281648)"><g clip-path="url(#SvgjsClipPath1008)"><path d=" M 4.201030994513151 0.8774281632530717 C 4.207861552271772 0.8774281632530717 4.211331727271772 0.8727663106668648 4.217728050547634 0.8643086072185889 L 4.281914568651082 0.7785460632530716 C 4.285384743651083 0.7739915356668647 4.287010655720048 0.7696553589427269 4.287010655720048 0.7649922727358303 C 4.287010655720048 0.7603304201496234 4.285384743651083 0.7559930098047958 4.281914568651082 0.7514397158392786 L 4.217728050547634 0.6656765550634165 C 4.211331727271772 0.6572195917875544 4.207861552271772 0.6525573691151406 4.201030994513151 0.6525573691151406 C 4.1940918781338405 0.6525573691151406 4.190621703133841 0.6572195917875544 4.1842253798579785 0.6656765550634165 L 4.120038491668324 0.7514397158392786 C 4.116568933478669 0.7559930098047958 4.114942527961427 0.7603304201496234 4.114942527961427 0.7649922727358303 C 4.114942527961427 0.7696553589427269 4.116568933478669 0.7739915356668647 4.120038491668324 0.7785460632530716 L 4.1842253798579785 0.8643086072185889 C 4.190621703133841 0.8727663106668648 4.1940918781338405 0.8774281632530717 4.201030994513151 0.8774281632530717 Z" fill="#343432" transform="matrix(1,0,0,1,0,0)" fill-rule="nonzero"></path></g></g></g><defs><clipPath id="SvgjsClipPath1006"><path d=" M 0 0 h 3.351624527102292 v 1.5079021633039127 h -3.351624527102292 Z"></path></clipPath><clipPath id="afd48490f-c5a9-4144-8ae4-abc4860c33eb94f8b56f-505f-4fd1-932e-88f2dfd61c2a"><path d=" M 0 1.5079021633039127 L 3.3516366385749263 1.5079021633039127 L 3.3516366385749263 0.0000037697554086808886 L 0 0.0000037697554086808886 Z"></path></clipPath><clipPath id="SvgjsClipPath1007"><path d=" M -1.0221133639625828 0.5880700942875544 h 0.34541379310344833 v 0.35775000000000007 h -0.34541379310344833 Z"></path></clipPath><clipPath id="SvgjsClipPath1008"><path d=" M 4.028324097961427 0.5880700942875544 h 0.34541379310344833 v 0.35775000000000007 h -0.34541379310344833 Z"></path></clipPath></defs></svg>